<svg id="Final_Logo_-_Grayscale" data-name="Final Logo - Grayscale" xmlns="http://www.w3.org/2000/svg" xmlns:xlink="http://www.w3.org/1999/xlink" viewBox="0 0 450.17 388.48"><defs><style>.cls-1{fill:#7050c0;}.cls-2{fill:#fefdff;}.cls-3{clip-path:url(#clip-path);}.cls-4{fill:#fff;}.cls-5{fill:none;stroke:#7050c0;stroke-miterlimit:10;stroke-width:2px;}</style><clipPath id="clip-path" transform="translate(-259.25 -50.73)"><circle class="cls-1" cx="390" cy="181.48" r="120.12"/></clipPath></defs><title>logo-horizon-whiteT</title><g id="Stella"><path class="cls-2" d="M547.78,187.6a3.07,3.07,0,0,0,3.22,3.23h7.11a3.08,3.08,0,0,0,3.23-3.23V183c0-6.75-5.44-9.38-10.28-12.13-4.36-2.51-8.3-6.09-8.3-11.53v-3.28a8.57,8.57,0,0,1,8.6-8.61h7.11a8.57,8.57,0,0,1,8.6,8.61h-5.38a3.07,3.07,0,0,0-3.22-3.23h-7.11a3.08,3.08,0,0,0-3.23,3.23v3.28c0,4,4.6,6.21,8.79,8.61,4.71,2.68,9.79,7,9.79,15.05v4.6a8.56,8.56,0,0,1-8.6,8.6H551a8.56,8.56,0,0,1-8.6-8.6v-8.84h5.38Z" transform="translate(-259.25 -50.73)"/><path class="cls-2" d="M570.53,147.81h26.23v5.38H586.3V195.6h-5.37V153.19h-10.4Z" transform="translate(-259.25 -50.73)"/><path class="cls-2" d="M623.16,153.19H607.21v13.38h14.34V172H607.21v18.28h15.95v5.37H601.83V147.81h21.33Z" transform="translate(-259.25 -50.73)"/><path class="cls-2" d="M635.47,190.23h15.95v5.37H630.15V147.81h5.32Z" transform="translate(-259.25 -50.73)"/><path class="cls-2" d="M661.81,190.23h16v5.37H656.49V147.81h5.32Z" transform="translate(-259.25 -50.73)"/><path class="cls-2" d="M686.54,184l-1.91,11.58h-5.38L687,149.84a2.78,2.78,0,0,1,2.57-2h9.49a2.71,2.71,0,0,1,2.57,2l7.77,45.76H704L702.13,184ZM697.11,154c-.12-.54-.3-.78-.59-.78h-4.37c-.35,0-.53.24-.59.78l-4.13,24.67h13.81Z" transform="translate(-259.25 -50.73)"/></g><g id="GahyunLee"><path class="cls-2" d="M557.17,205.3h3.48a4.5,4.5,0,0,1,4.52,4.52v4H563.6v-4a2.91,2.91,0,0,0-3-2.95h-3.48a2.91,2.91,0,0,0-2.95,2.95v16.55a2.91,2.91,0,0,0,2.95,2.95h3.48a2.89,2.89,0,0,0,3-2.95v-6.52h-5.27v-1.56h6.84v8.08a4.5,4.5,0,0,1-4.52,4.52h-3.48a4.49,4.49,0,0,1-4.51-4.52V209.82A4.49,4.49,0,0,1,557.17,205.3Z" transform="translate(-259.25 -50.73)"/><path class="cls-2" d="M570.26,223.87l-1.19,6.71H567.5l4.26-24a1.43,1.43,0,0,1,1.35-1.07H577a1.37,1.37,0,0,1,1.34,1.07l4.3,24h-1.57l-1.19-6.71ZM577,207.66a.67.67,0,0,0-.66-.6H573.8a.7.7,0,0,0-.69.6l-2.57,14.64h9.06Z" transform="translate(-259.25 -50.73)"/><path class="cls-2" d="M587.23,216h9.37V205.49h1.57v25.09H596.6V217.5h-9.37v13.08h-1.57V205.49h1.57Z" transform="translate(-259.25 -50.73)"/><path class="cls-2" d="M612.1,222.52a1.48,1.48,0,0,1-1.47,1.06h-1.1v7H608v-7h-1a1.48,1.48,0,0,1-1.47-1.06l-4.27-17h1.6l4,15.93c.07.19.32.6.69.6h2.61a.73.73,0,0,0,.65-.6l4-15.93h1.57Z" transform="translate(-259.25 -50.73)"/><path class="cls-2" d="M620.64,226.37a2.91,2.91,0,0,0,3,2.95h3.57a2.91,2.91,0,0,0,3-2.95V205.49h1.57v20.88a4.5,4.5,0,0,1-4.52,4.52h-3.57a4.5,4.5,0,0,1-4.52-4.52V205.49h1.57Z" transform="translate(-259.25 -50.73)"/><path class="cls-2" d="M647.24,229h.37V205.49h1.57v25.09h-3l-7.87-23.52h-.44v23.52h-1.57V205.49h3.08Z" transform="translate(-259.25 -50.73)"/><path class="cls-2" d="M662.15,229h9.15v1.57H660.61V205.49h1.54Z" transform="translate(-259.25 -50.73)"/><path class="cls-2" d="M684.73,207.06h-9.19V216h8.31v1.56h-8.31V229h9.16v1.57H674V205.49h10.76Z" transform="translate(-259.25 -50.73)"/><path class="cls-2" d="M699.16,207.06H690V216h8.31v1.56H690V229h9.16v1.57H688.4V205.49h10.76Z" transform="translate(-259.25 -50.73)"/></g><circle class="cls-1" cx="130.75" cy="130.75" r="120.12"/><g class="cls-3"><g id="Symbol"><path id="star" class="cls-4" d="M340.87,258.56a2.5,2.5,0,0,1-.61-.57v-.08a7.68,7.68,0,0,1-2.76-7.12L342.57,209l.51-4.05a5,5,0,0,0,.05-1.16,8.4,8.4,0,0,0-2.83-6.32l-21.85-19.31L305.76,167a8.09,8.09,0,0,1-2.55-8.24,8.37,8.37,0,0,1,6.58-6.48l45.33-8.67a8.63,8.63,0,0,0,6.1-5l18.42-42.31a8.47,8.47,0,0,1,15.2-.74l22.37,40.33a8.34,8.34,0,0,0,6.54,4.34l45.92,4.51a8.21,8.21,0,0,1,7,5.24l.05.19.41,1.61.21,1.22v.08a10.49,10.49,0,0,1-.2,1.5l.07.1a8.4,8.4,0,0,1-2.17,4.18l-.91,1-30.54,32.75a8.57,8.57,0,0,0-2,7.63l9.89,45.11a8.29,8.29,0,0,1-1.87,7.3,8,8,0,0,1-3.93,2.57,6.92,6.92,0,0,1-3,.33,7.83,7.83,0,0,1-3.09-.78L397.87,235.3a8.66,8.66,0,0,0-7.91.35L380.89,241l-9.07,5.36-.81.47c.05-1.16.11-2.41.24-3.56a27.18,27.18,0,0,0-1.76,4.44l-6.72,3.92-12.54,7.48A8.61,8.61,0,0,1,340.87,258.56Z" transform="translate(-259.25 -50.73)"/><path id="top" class="cls-4" d="M456.23,411.57c1.33-11.47.9-23.18-.39-35.06-4.43-40.27-18.79-82.37-10.55-120.09a7.09,7.09,0,0,0,2.95-.32,8,8,0,0,0,3.93-2.58,8.28,8.28,0,0,0,1.87-7.3l-9.89-45.11a8.57,8.57,0,0,1,2-7.63l30.54-32.74C456,241.65,471.54,329.61,456.23,411.57Z" transform="translate(-259.25 -50.73)"/><path id="middle" class="cls-4" d="M447.07,439.18c-.18,0-.25-.14-.4-.26l0-.18c-.07-.11-.09-.46-.16-.57a10.33,10.33,0,0,0,.5-1.61c5.95-16.7-1.37-36.07-13.65-56.4a6.86,6.86,0,0,0-.52-1c-26.69-43.6-75.18-91.45-63.11-127.51l1.52-.88.81-.47,9.07-5.36,9.07-5.36a8.63,8.63,0,0,1,7.91-.35l41.75,19.48a7.83,7.83,0,0,0,3.09.78c-8.24,37.71,6.11,79.82,10.54,120.08,1.3,11.88,1.73,23.6.4,35.06a98.89,98.89,0,0,1-4,18.61c-.38,1.46-.77,3-1.14,4.47l-.07.35,0,.09a1.91,1.91,0,0,1-.51.8A1.4,1.4,0,0,1,447.07,439.18Z" transform="translate(-259.25 -50.73)"/><path class="cls-4" d="M369.49,247.72a27.18,27.18,0,0,1,1.76-4.44c-.13,1.15-.19,2.4-.24,3.56Z" transform="translate(-259.25 -50.73)"/><path class="cls-4" d="M430.59,379.81a7,7,0,0,0-.53-1c-26.68-43.6-75.17-91.45-63.11-127.51l-6.71,3.92-10.92,5.68a16,16,0,0,1-7.84-.71c-3.31-1.26-4.33-3.76-5.1-5.8a17,17,0,0,1-.46-5.75l.1-1.25c1.43-13,4.73-39.54,3.84-44.23s-27.77-26.88-27.77-26.88l-1.93-1.66c-1.93-1.66-7.13-6.46-7.13-6.46.49,1,2.58,5.63,2.58,5.63,3.86,9.82,19.2,42.47,24.58,70.5,4.58,23.86,22.35,51.35,23.53,51.73l2,.63c31.79,45.81,89.73,99.21,88.86,135.67a39.15,39.15,0,0,1-.89,5.5,11.48,11.48,0,0,0,.49-1.61C450.18,419.51,442.86,400.14,430.59,379.81Z" transform="translate(-259.25 -50.73)"/></g></g><circle class="cls-5" cx="130.75" cy="130.75" r="129.75"/></svg>