<?xml version="1.0" encoding="utf-8"?>
<!-- Generator: Adobe Illustrator 24.0.1, SVG Export Plug-In . SVG Version: 6.00 Build 0)  -->
<svg version="1.1" xmlns="http://www.w3.org/2000/svg" xmlns:xlink="http://www.w3.org/1999/xlink" x="0px" y="0px"
	 viewBox="0 0 291.9 185.3" style="enable-background:new 0 0 291.9 185.3;" xml:space="preserve">
<style type="text/css">
	.st0{clip-path:url(#SVGID_2_);}
	.st1{fill:#FFFFFF;}
	.st2{fill:none;stroke:#774BC6;stroke-width:2;stroke-miterlimit:10;}
</style>
<g id="Layer_1">
</g>
<g id="Text">
	<g id="Stella_1_">
		<path d="M181.7,90.8c0,1.2,0.8,2,2,2h4.4c1.2,0,2-0.8,2-2V88c0-4.1-3.3-5.7-6.3-7.4c-2.7-1.5-5.1-3.7-5.1-7.1v-2
			c0-2.9,2.3-5.3,5.3-5.3h4.4c2.9,0,5.3,2.3,5.3,5.3h-3.3c0-1.2-0.8-2-2-2h-4.4c-1.2,0-2,0.8-2,2v2c0,2.5,2.8,3.8,5.4,5.3
			c2.9,1.6,6,4.3,6,9.2v2.8c0,2.9-2.3,5.3-5.3,5.3h-4.4c-2.9,0-5.3-2.3-5.3-5.3v-5.4h3.3V90.8z"/>
		<path d="M195.6,66.5h16.1v3.3h-6.4v26H202v-26h-6.4V66.5z"/>
		<path d="M227.8,69.8H218V78h8.8v3.3H218v11.2h9.8v3.3h-13.1V66.5h13.1V69.8z"/>
		<path d="M235.3,92.5h9.8v3.3h-13V66.5h3.3V92.5z"/>
		<path d="M251.5,92.5h9.8v3.3h-13V66.5h3.3V92.5z"/>
		<path d="M266.6,88.7l-1.2,7.1h-3.3l4.8-28c0.1-0.6,0.8-1.2,1.6-1.2h5.8c0.8,0,1.5,0.6,1.6,1.2l4.8,28h-3.3l-1.2-7.1H266.6z
			 M273.1,70.3c-0.1-0.3-0.2-0.5-0.4-0.5H270c-0.2,0-0.3,0.1-0.4,0.5l-2.5,15.1h8.4L273.1,70.3z"/>
	</g>
	<g id="GahyunLee_1_">
		<path d="M187.4,101.7h2.1c1.5,0,2.8,1.2,2.8,2.8v2.4h-1v-2.4c0-1-0.8-1.8-1.8-1.8h-2.1c-1,0-1.8,0.8-1.8,1.8v10.1
			c0,1,0.8,1.8,1.8,1.8h2.1c1.2,0,1.8-1,1.8-1.8v-4h-3.2v-1h4.2v5c0,1.5-1.2,2.8-2.8,2.8h-2.1c-1.5,0-2.8-1.2-2.8-2.8v-10.1
			C184.6,102.9,185.9,101.7,187.4,101.7z"/>
		<path d="M195.4,113l-0.7,4.1h-1l2.6-14.7c0.1-0.3,0.4-0.7,0.8-0.7h2.4c0.4,0,0.8,0.3,0.8,0.7l2.6,14.7h-1l-0.7-4.1H195.4z
			 M199.5,103.1c0-0.2-0.2-0.4-0.4-0.4h-1.6c-0.2,0-0.4,0.2-0.4,0.4l-1.6,9h5.5L199.5,103.1z"/>
		<path d="M205.8,108.2h5.7v-6.4h1v15.4h-1v-8h-5.7v8h-1v-15.4h1V108.2z"/>
		<path d="M221,112.2c-0.1,0.3-0.4,0.7-0.9,0.7h-0.7v4.3h-1v-4.3h-0.6c-0.4,0-0.8-0.3-0.9-0.7l-2.6-10.4h1l2.5,9.8
			c0,0.1,0.2,0.4,0.4,0.4h1.6c0.2,0,0.4-0.2,0.4-0.4l2.5-9.8h1L221,112.2z"/>
		<path d="M226.3,114.6c0,1,0.8,1.8,1.8,1.8h2.2c1,0,1.8-0.8,1.8-1.8v-12.8h1v12.8c0,1.5-1.2,2.8-2.8,2.8h-2.2
			c-1.5,0-2.8-1.2-2.8-2.8v-12.8h1V114.6z"/>
		<path d="M242.5,116.2h0.2v-14.4h1v15.4h-1.9l-4.8-14.4h-0.3v14.4h-1v-15.4h1.9L242.5,116.2z"/>
		<path d="M251.7,116.2h5.6v1h-6.5v-15.4h0.9V116.2z"/>
		<path d="M265.5,102.8h-5.6v5.5h5.1v1h-5.1v7h5.6v1h-6.6v-15.4h6.6V102.8z"/>
		<path d="M274.3,102.8h-5.6v5.5h5.1v1h-5.1v7h5.6v1h-6.6v-15.4h6.6V102.8z"/>
	</g>
</g>
<g id="Layer_3">
	<g>
		<g>
			<g>
				<g>
					<defs>
						<circle id="SVGID_1_" cx="89.7" cy="91.8" r="73.5"/>
					</defs>
					<use xlink:href="#SVGID_1_"  style="overflow:visible;fill:#774BC6;"/>
					<clipPath id="SVGID_2_">
						<use xlink:href="#SVGID_1_"  style="overflow:visible;"/>
					</clipPath>
					<g id="Symbol_1_" class="st0">
						<path id="star_1_" class="st1" d="M59.6,139c-0.1-0.1-0.2-0.2-0.4-0.3l0-0.1c-1.2-0.9-1.9-2.5-1.7-4.4l3.1-25.6l0.3-2.5
							c0.1-0.3,0-0.4,0-0.7c0-1.4-0.6-2.9-1.7-3.9L45.9,89.8l-7.8-6.9c-1.6-1.4-2-3.3-1.6-5c0.4-1.9,1.9-3.6,4-4l27.7-5.3
							c1.6-0.3,3.1-1.5,3.7-3l11.3-25.9c1.7-4,7.2-4.2,9.3-0.5l13.7,24.7c0.9,1.5,2.3,2.5,4,2.7l28.1,2.8c2.1,0.2,3.6,1.5,4.3,3.2
							l0,0.1l0.2,1l0.1,0.7l0,0.1c0,0.3-0.1,0.6-0.1,0.9l0,0.1c-0.2,1-0.6,1.8-1.3,2.6l-0.6,0.6l-18.7,20c-1.1,1.3-1.6,3-1.2,4.7
							l6.1,27.6c0.4,1.7-0.2,3.3-1.1,4.5c-0.6,0.8-1.5,1.3-2.4,1.6c-0.5,0.2-1.2,0.3-1.8,0.2c-0.6,0-1.2-0.2-1.9-0.5l-25.6-11.9
							c-1.6-0.7-3.4-0.7-4.8,0.2l-5.6,3.3l-5.6,3.3l-0.5,0.3c0-0.7,0.1-1.5,0.1-2.2c-0.4,0.9-0.8,1.8-1.1,2.7l-4.1,2.4l-7.7,4.6
							C63.3,140.4,61.1,140.1,59.6,139z"/>
						<path id="top_1_" class="st1" d="M130.2,232.7c0.8-7,0.6-14.2-0.2-21.5c-2.7-24.6-11.5-50.4-6.5-73.5c0.6,0.1,1.3,0,1.8-0.2
							c0.9-0.3,1.8-0.8,2.4-1.6c1-1.1,1.5-2.7,1.1-4.5l-6.1-27.6c-0.4-1.7,0.1-3.4,1.2-4.7l18.7-20
							C130.1,128.6,139.6,182.5,130.2,232.7z"/>
						<path id="middle_1_" class="st1" d="M124.6,249.6c-0.1,0-0.1-0.1-0.2-0.2l0-0.1c0-0.1-0.1-0.3-0.1-0.3c0.1-0.3,0.2-0.7,0.3-1
							c3.6-10.2-0.8-22.1-8.4-34.5c-0.1-0.2-0.2-0.4-0.3-0.6c-16.3-26.7-46-56-38.6-78.1l0.9-0.5l0.5-0.3l5.6-3.3l5.6-3.3
							c1.5-0.9,3.3-0.9,4.8-0.2l25.6,11.9c0.7,0.3,1.3,0.5,1.9,0.5c-5,23.1,3.7,48.9,6.5,73.5c0.8,7.3,1.1,14.4,0.2,21.5
							c-0.5,3.9-1.2,7.7-2.4,11.4c-0.2,0.9-0.5,1.8-0.7,2.7l0,0.2c0,0,0,0,0,0.1c0,0.2-0.2,0.4-0.3,0.5
							C125,249.6,124.8,249.6,124.6,249.6z"/>
						<path class="st1" d="M77.1,132.4c0.3-0.9,0.6-1.9,1.1-2.7c-0.1,0.7-0.1,1.5-0.1,2.2L77.1,132.4z"/>
						<path class="st1" d="M114.5,213.2c-0.1-0.2-0.2-0.4-0.3-0.6c-16.3-26.7-46-56-38.6-78.1l-4.1,2.4l-6.7,3.5
							c-0.9,0.1-2.9,0.3-4.8-0.4c-2-0.8-2.6-2.3-3.1-3.6c-0.4-1.1-0.3-3.2-0.3-3.5l0.1-0.8c0.9-7.9,2.9-24.2,2.4-27.1
							c-0.5-2.9-17-16.5-17-16.5s-0.5-0.4-1.2-1c-1.2-1-4.4-4-4.4-4c0.3,0.6,1.6,3.4,1.6,3.4c2.4,6,11.8,26,15,43.2
							c2.8,14.6,13.7,31.4,14.4,31.7c0.4,0.1,0.9,0.3,1.3,0.4c19.5,28,54.9,60.7,54.4,83c-0.1,1.1-0.3,2.3-0.5,3.4
							c0.1-0.3,0.2-0.7,0.3-1C126.5,237.5,122,225.7,114.5,213.2z"/>
					</g>
				</g>
				<circle class="st2" cx="89.7" cy="91.8" r="79.4"/>
			</g>
		</g>
	</g>
</g>
</svg>
